<svg width="67" height="67" viewBox="0 0 67 67" fill="none" xmlns="http://www.w3.org/2000/svg">
<path d="M33.5699 64.1397C50.453 64.1397 64.1397 50.453 64.1397 33.5699C64.1397 16.6866 50.453 3 33.5699 3C16.6866 3 3 16.6866 3 33.5699C3 50.453 16.6866 64.1397 33.5699 64.1397Z" stroke="#5D5D5D" stroke-width="4.58548" stroke-linecap="round" stroke-linejoin="round"/>
<path d="M42.7408 22.8704C40.6468 20.7764 36.9592 19.3199 33.5699 19.2287M33.5699 19.2287C29.5374 19.1202 25.9274 20.9445 25.9274 25.9274C25.9274 35.0984 42.7408 30.5129 42.7408 39.6839C42.7408 44.9144 38.266 47.1619 33.5699 46.9931M33.5699 19.2287V13.6995M24.3989 42.7408C26.3691 45.3677 30.0323 46.8659 33.5699 46.9931M33.5699 46.9931V53.4403" stroke="#5D5D5D" stroke-width="4.58548" stroke-linecap="round" stroke-linejoin="round"/>
</svg>
