<svg width="67" height="67" viewBox="0 0 67 67" fill="none" xmlns="http://www.w3.org/2000/svg">
<path d="M58.0258 33.5699V62.3056C58.0258 63.3186 57.2047 64.1398 56.1916 64.1398H10.9482C9.93521 64.1398 9.11401 63.3186 9.11401 62.3056V33.5699" stroke="#5D5D5D" stroke-width="4.58548" stroke-linecap="round" stroke-linejoin="round"/>
<path d="M62.3055 18.2849H4.83419C3.8212 18.2849 3 19.1061 3 20.1191V31.7357C3 32.7487 3.8212 33.5698 4.83419 33.5698H62.3055C63.3186 33.5698 64.1397 32.7487 64.1397 31.7357V20.1191C64.1397 19.1061 63.3186 18.2849 62.3055 18.2849Z" stroke="#5D5D5D" stroke-width="4.58548" stroke-linecap="round" stroke-linejoin="round"/>
<path d="M33.5698 64.1397V18.2849" stroke="#5D5D5D" stroke-width="4.58548" stroke-linecap="round" stroke-linejoin="round"/>
<path d="M33.5698 18.2849H19.8134C17.7865 18.2849 15.8426 17.4798 14.4093 16.0465C12.9761 14.6133 12.1709 12.6694 12.1709 10.6425C12.1709 8.61556 12.9761 6.67166 14.4093 5.23842C15.8426 3.80518 17.7865 3 19.8134 3C30.5128 3 33.5698 18.2849 33.5698 18.2849Z" stroke="#5D5D5D" stroke-width="4.58548" stroke-linecap="round" stroke-linejoin="round"/>
<path d="M33.5698 18.2849H47.3263C49.353 18.2849 51.297 17.4798 52.7304 16.0465C54.1635 14.6133 54.9687 12.6694 54.9687 10.6425C54.9687 8.61556 54.1635 6.67166 52.7304 5.23842C51.297 3.80518 49.353 3 47.3263 3C36.6268 3 33.5698 18.2849 33.5698 18.2849Z" stroke="#5D5D5D" stroke-width="4.58548" stroke-linecap="round" stroke-linejoin="round"/>
</svg>
